<?xml version="1.0" standalone="no"?>
<!DOCTYPE svg PUBLIC "-//W3C//DTD SVG 20010904//EN"
 "http://www.w3.org/TR/2001/REC-SVG-20010904/DTD/svg10.dtd">
<svg version="1.0" xmlns="http://www.w3.org/2000/svg"
 width="48.000000pt" height="48.000000pt" viewBox="0 0 48.000000 48.000000"
 preserveAspectRatio="xMidYMid meet">
<metadata>
Created by potrace 1.16, written by Peter Selinger 2001-2019
</metadata>
<g transform="translate(0.000000,48.000000) scale(0.100000,-0.100000)"
fill="#000000" stroke="none">
<path d="M295 437 c-6 -7 -24 -31 -40 -54 -17 -23 -42 -47 -57 -54 -15 -6 -26
-16 -25 -22 1 -6 -4 -11 -11 -12 -20 0 -32 -27 -19 -43 17 -22 8 -75 -16 -94
-19 -15 -20 -18 -4 -18 9 0 25 -13 35 -28 l17 -28 44 16 c69 24 81 48 87 175
9 197 21 201 54 20 12 -66 24 -123 26 -127 2 -3 -4 -9 -13 -11 -14 -4 -13 -5
4 -6 12 0 39 -16 59 -33 l37 -33 -5 30 c-8 42 -104 304 -119 321 -14 17 -40
18 -54 1z"/>
</g>
</svg>
