<?xml version="1.0" standalone="no"?>
<!DOCTYPE svg PUBLIC "-//W3C//DTD SVG 20010904//EN"
 "http://www.w3.org/TR/2001/REC-SVG-20010904/DTD/svg10.dtd">
<svg version="1.0" xmlns="http://www.w3.org/2000/svg"
 width="32.000000pt" height="32.000000pt" viewBox="0 0 32.000000 32.000000"
 preserveAspectRatio="xMidYMid meet">
<metadata>
Created by potrace 1.16, written by Peter Selinger 2001-2019
</metadata>
<g transform="translate(0.000000,32.000000) scale(0.100000,-0.100000)"
fill="#000000" stroke="none">
<path d="M190 241 c0 -28 -3 -31 -31 -31 -17 0 -28 -4 -24 -10 3 -5 17 -10 31
-10 20 0 24 -5 24 -30 0 -27 -3 -30 -30 -30 -25 0 -30 4 -30 24 0 14 -4 28
-10 31 -6 4 -10 -7 -10 -24 0 -28 -3 -31 -31 -31 -17 0 -28 -4 -24 -10 3 -5
17 -10 31 -10 20 0 24 -5 24 -30 0 -27 -3 -30 -31 -30 -27 0 -30 -2 -19 -15 9
-11 32 -15 79 -15 37 0 72 -5 78 -11 6 -6 28 -9 49 -7 l39 3 -3 120 c-3 86 -8
124 -18 135 -12 12 -14 10 -14 -18 0 -29 -3 -32 -30 -32 -25 0 -30 4 -30 24 0
14 -4 28 -10 31 -6 4 -10 -7 -10 -24z"/>
</g>
</svg>
